<svg xmlns="http://www.w3.org/2000/svg" viewBox="0 0 114.41 115.84">
  <defs>
    <style>
      .cls-1 {
        fill:#fff;
      }
    </style>
  </defs>
  <g id="Layer_2" data-name="Layer 2">
    <g id="Layer_9" data-name="Layer 9">
      <path class="cls-1" d="M111.56,57.18a16.91,16.91,0,0,1-8.85-5.73C100.88,49,97,44.77,91.38,44.22l-.55-.12c2-2.62.73-7.26-.17-9.77a11.47,11.47,0,0,1-.21-7.7A10.47,10.47,0,0,1,91.19,25a10.58,10.58,0,0,1-1.69.64A11.44,11.44,0,0,1,81.83,25c-2.46-1-7-2.54-9.75-.71l-1.33-1.2c-.49-5.55-4.68-9.51-7.11-11.36A16.94,16.94,0,0,1,58,2.86,26.77,26.77,0,0,1,57.32,0a24.33,24.33,0,0,1-.71,2.84,16.93,16.93,0,0,1-5.82,8.78c-2.46,1.8-6.72,5.68-7.31,11.22l-1.33.3c-2.61-2-7.26-.74-9.77.16a11.53,11.53,0,0,1-7.7.2A10.47,10.47,0,0,1,23,22.76a10.67,10.67,0,0,1,.64,1.68A11.47,11.47,0,0,1,23,32.12c-1,2.45-2.55,7-.72,9.74l-.69,2.33C16.4,44.72,12.71,49,11,51.39a15.88,15.88,0,0,1-8.31,5.73A21.56,21.56,0,0,1,0,57.81a24,24,0,0,1,2.68.69A15.92,15.92,0,0,1,11,64.24c1.72,2.45,5.41,6.68,10.63,7.22l.22,1c-2,2.64-.67,7.27.26,9.77a11.49,11.49,0,0,1,.28,7.7,11.08,11.08,0,0,1-.72,1.65,10.52,10.52,0,0,1,1.68-.66,11.51,11.51,0,0,1,7.68.55c2.46,1,7.05,2.48,9.75.63l1.81.63c.53,5.59,4.76,9.55,7.21,11.39A17.12,17.12,0,0,1,55.5,113a24.8,24.8,0,0,1,.69,2.88,26,26,0,0,1,.7-2.87,17.06,17.06,0,0,1,5.73-8.9c2.45-1.84,6.68-5.78,7.22-11.37L71.47,92c2.69,1.89,7.29.47,9.76-.53A11.43,11.43,0,0,1,88.91,91a9.54,9.54,0,0,1,1.67.67,11.1,11.1,0,0,1-.7-1.66,11.48,11.48,0,0,1,.35-7.69c1-2.49,2.29-7.11.36-9.77l.78-1c5.56-.54,9.5-4.77,11.33-7.21a17,17,0,0,1,8.85-5.73,27.41,27.41,0,0,1,2.86-.69A24.19,24.19,0,0,1,111.56,57.18ZM98.42,58.41a12.83,12.83,0,0,0-6.72,4.34c-1.39,1.85-4.37,5.06-8.59,5.47l-.59.77c1.46,2,.45,5.52-.28,7.4A8.79,8.79,0,0,0,82,82.23a7.93,7.93,0,0,0,.53,1.26A6.64,6.64,0,0,0,81.25,83a8.67,8.67,0,0,0-5.83.36c-1.87.76-5.36,1.83-7.4.41l-1.23.54c-.41,4.24-3.62,7.23-5.48,8.62A13,13,0,0,0,57,99.66a20.88,20.88,0,0,0-.52,2.17,20.88,20.88,0,0,0-.52-2.17,13,13,0,0,0-4.35-6.75c-1.85-1.4-5.06-4.39-5.46-8.63l-1.37-.48c-2.05,1.4-5.53.3-7.4-.48a8.77,8.77,0,0,0-5.82-.42,7.49,7.49,0,0,0-1.27.5,8,8,0,0,0,.54-1.25,8.71,8.71,0,0,0-.21-5.84c-.7-1.89-1.68-5.41-.2-7.4l-.16-.72c-4-.41-6.76-3.62-8.06-5.48a12.08,12.08,0,0,0-6.3-4.35,18,18,0,0,0-2-.52,17,17,0,0,0,2-.53A12,12,0,0,0,22.17,53c1.3-1.85,4.1-5.06,8.06-5.46l.52-1.76c-1.39-2.07-.24-5.53.55-7.39a8.68,8.68,0,0,0,.48-5.82,8,8,0,0,0-.48-1.28,7.87,7.87,0,0,0,1.25.56,8.67,8.67,0,0,0,5.83-.15c1.91-.68,5.43-1.63,7.41-.12l1-.23c.44-4.2,3.68-7.14,5.54-8.51a12.8,12.8,0,0,0,4.41-6.65A18.26,18.26,0,0,0,57.29,14a18.57,18.57,0,0,0,.51,2.17,12.91,12.91,0,0,0,4.28,6.73c1.84,1.4,5,4.4,5.4,8.61l1,.91C70.55,31,74,32.17,75.87,33a8.7,8.7,0,0,0,5.83.48A8.13,8.13,0,0,0,83,33a7.4,7.4,0,0,0-.55,1.25A8.7,8.7,0,0,0,82.57,40c.69,1.9,1.63,5.42.13,7.4l.42.09c4.22.42,7.2,3.63,8.59,5.48a12.87,12.87,0,0,0,6.71,4.35,19.28,19.28,0,0,0,2.16.53A17.75,17.75,0,0,0,98.42,58.41Z"/>
    </g>
  </g>
</svg>