<svg xmlns="http://www.w3.org/2000/svg" viewBox="0 0 176.31 178.5"><defs><style>.cls-1{fill:#fff;}</style></defs><g id="Layer_2" data-name="Layer 2"><g id="เจาะแล้ว"><path class="cls-1" d="M45.82,124.47c.84,1,1.7,1.92,2.61,2.83a53.63,53.63,0,0,0,38.16,15.83h0a53.6,53.6,0,0,0,38.13-15.79,50.58,50.58,0,0,0,3.63-4l-34.44-21,0,9.84-6.46,6.38-6.41-7V103Z"/><path class="cls-1" d="M126.92,116s.88-25.45.62-27-1-1.45-1-1.45c2.5-1.45-.73-3.54-.73-3.54-2-1.45-4.41,3.42-4.41,3.42-.19-1.2-3.45-3.91-3.45-3.91l-2.17,1.78c-.13,2.16,1.32,1.47,1.32,1.47l-.2,14v3.77l3.24,1.69.16-11.12c-1.86,2.63-3.09-1.43-3.09-1.43,2.8,1.67,4.21-4.44,4.21-4.44s3,3.92,3.74,3.45a6.64,6.64,0,0,0-.46,2.08c-.12,5.14-.28,20.09-.28,20.09l-4.07-2.35-8.06-5s0-19.51.19-20-1.2-2.46-1.2-2.46l5.9-5.65c2.39-.19,4.7,3,4.7,3,.32-1.46,5-3,5-3s6.45,6.81,5.81,6.73-.59,2.45-.59,2.45v29.83A54,54,0,0,0,86.64,35.2h0a54,54,0,0,0-42.72,86.93L80.29,100a1.41,1.41,0,0,1,.76-.21V83l2.47-7.61-1.77-1.65S78.46,77,79.39,77.6s2.36-.22,2.36-.22l-2.31,2.9-.88-1.22c-.47.76-2.12,3.26-4,4-2.16.85-9.21-1.16-9.21-1.16l1.51.64L73,85.09l.29,15.63-10.19,5.55-.22-6.74L65.4,95.6c0,3.72,2.76,2.66,2.76,2.66V88.06s-5.43-2.45-6.25-3a28.7,28.7,0,0,0-2.7-1.36l6.69-5.53c2.66-1,4.82.48,7.15,1.36,2,.74,4.63-.29,5.41-.62L76.2,75.78l6-7.21s4.74,6.72,5.73,6.39-.85,1.15-1.13,2-1.14,5.65-1.14,5.65v26.85l1.86,3,2.41-2.78.2-29.51L88.21,76l5.68-7.49L77.46,65.65s24.65-6.28,20-11.94c-6.28-7.57-24.07.46-24.07.46l10.14-7.8s25.44-2,23.77,4.38c-1.73,6.69-7.6,8.53-17.83,12.53l9.14,1.23,8.32,1.62c-1.62-.33-16.1,10-16.1,10L94,78.72l0,20.4a1.48,1.48,0,0,1,.78.21L130.23,121c.53-.72,1-1.46,1.53-2.21ZM75.6,56.8l.85,16.31c-9.83,3.15-21.1,2-21.1,2,8.36,4.39.75,9.35.75,9.35l3.66,4.5L59,91l.23,16.64-4,2.77S55,94.45,55,93.66a9.45,9.45,0,0,0-1.3-2.8,10.81,10.81,0,0,0,2.09-1.54l-6.45-4.45-5.44,6.41L45.5,93.5l-.12,17,1-.56.44-14.7a3.9,3.9,0,0,0,2.09-2.78c.13-1.25,1,3.34,4.77,3.87,0,0-.81,4.82-3.37,1.6l.31,15.15L41.7,118l-.18-5.75s0-10.46-.1-16.35-1.24-6.15-1.24-6.15c1.92-.52,8.72-10.19,8.72-10.19l4.59,3.38s6.5-3.49-7.75-10.5c1.74,0,17.42,3.67,24-1.43C72.14,69.07,75.17,59.68,75.6,56.8Zm44.53,16.74c5.08,3.28,15.67-.63,15.67-.63l-4.12,6.34-9.68-2-12.35-3-.5-16A27.07,27.07,0,0,0,120.13,73.54Zm-16,28.51.12-14.2s2.18-3.11,0-4.41c-1.57-.93-3-.58-3.12.09-.11,1,.47,3.64,2.65,2.13L100,88.28l-4.09-5.75,4.7-5.29,9,6.05.31,22.57Z"/><path class="cls-1" d="M94.66,146.48a37.76,37.76,0,0,1-7.52.78H86.08a38.46,38.46,0,0,1-7.42-.76,57.69,57.69,0,0,1-13-3.38c1,8.45,7.35,14.44,11.07,17.25,3.88,2.92,7.05,7.7,8.82,13.71a40.32,40.32,0,0,1,1.06,4.42,42.13,42.13,0,0,1,1.07-4.42c1.78-6,5-10.78,8.84-13.7s10.14-8.8,11.09-17.26A57.43,57.43,0,0,1,94.66,146.48Z"/><path class="cls-1" d="M139.79,112.07a58.09,58.09,0,0,1-29.36,29.85c4.17,2.61,11,.51,14.74-1a17.7,17.7,0,0,1,11.85-.74,15.53,15.53,0,0,1,2.57,1,15.43,15.43,0,0,1-1.08-2.55A17.74,17.74,0,0,1,139,126.8C140.47,123.06,142.45,116.19,139.79,112.07Z"/><path class="cls-1" d="M171.91,88.12c-6-1.78-10.73-5-13.64-8.84S149.39,69,140.82,68.15a1.22,1.22,0,0,0-.27,0,57,57,0,0,1,2.32,7.38,38.41,38.41,0,0,1,2.34,13.11V89.7a38.25,38.25,0,0,1-2.32,13,57,57,0,0,1-2.34,7.48h.25c8.57-.83,14.63-7.34,17.46-11.11s7.66-7,13.64-8.82a38.82,38.82,0,0,1,4.41-1.07A39.49,39.49,0,0,1,171.91,88.12Z"/><path class="cls-1" d="M140.29,67.67c2.58-4.1.76-10.85-.59-14.57a17.71,17.71,0,0,1-.31-11.87,15.34,15.34,0,0,1,1.13-2.53,16.55,16.55,0,0,1-2.6,1,17.72,17.72,0,0,1-11.83-1c-3.57-1.52-10.06-3.67-14.3-1.5A58.08,58.08,0,0,1,140.29,67.67Z"/><path class="cls-1" d="M83.91,31.14c1.16-.1,2.36-.16,3.61-.15h1.06a38.83,38.83,0,0,1,7.77.9A57.44,57.44,0,0,1,109,35.56c-.77-8.54-7.23-14.64-11-17.48s-7-7.7-8.71-13.68a40.63,40.63,0,0,1-1-4.4,40.43,40.43,0,0,1-1.1,4.38c-1.83,5.94-5,10.65-9,13.52-3.68,2.7-10,8.42-11.16,16.56A57.43,57.43,0,0,1,83.91,31.14Z"/><path class="cls-1" d="M34.28,64.33A58.18,58.18,0,0,1,64.82,35.57c-4-2.92-11.09-1-14.92.34a17.77,17.77,0,0,1-11.87.3,15.34,15.34,0,0,1-2.53-1.13,15,15,0,0,1,1,2.59,17.72,17.72,0,0,1-1,11.83C33.92,53.22,31.65,60.11,34.28,64.33Z"/><path class="cls-1" d="M28.64,89.3a57.84,57.84,0,0,1,4-21.11c-7.67,1.13-13.11,7.36-15.68,11A24.48,24.48,0,0,1,4.13,88,34.59,34.59,0,0,1,0,89.09a35.56,35.56,0,0,1,4.13,1.06A24.59,24.59,0,0,1,16.93,99c2.55,3.64,7.93,9.82,15.53,11A57.82,57.82,0,0,1,28.64,89.3Z"/><path class="cls-1" d="M33.35,112c-2.58,4.12-.69,10.9.69,14.61a17.68,17.68,0,0,1,.43,11.87A15.88,15.88,0,0,1,33.36,141,16,16,0,0,1,36,140a17.71,17.71,0,0,1,11.84.85c3.74,1.56,10.67,3.76,14.86,1.06A58.19,58.19,0,0,1,33.35,112Z"/></g></g></svg>