<?xml version="1.0" encoding="utf-8"?>
<!-- Generator: Adobe Illustrator 25.2.0, SVG Export Plug-In . SVG Version: 6.00 Build 0)  -->
<svg version="1.1" id="Layer_1" xmlns="http://www.w3.org/2000/svg" xmlns:xlink="http://www.w3.org/1999/xlink" x="0px" y="0px"
	 viewBox="0 0 416.7 421.9" style="enable-background:new 0 0 416.7 421.9;" xml:space="preserve">
<style type="text/css">
	.st0{fill:#D11111;}
</style>
<g id="Layer_2_1_">
	<g id="Layer_1-2">
		<path class="st0" d="M108.3,294.2c2,2.3,4,4.5,6.2,6.7c23.9,24,56.3,37.5,90.2,37.4h0.1c38.2,0,74.5-17.2,98.7-46.8L222,242v23.2
			l-15.2,15.1l-15.2-16.6v-20.2L108.3,294.2z"/>
		<path class="st0" d="M300,274.1c0,0,2.1-60.2,1.5-63.9s-2.4-3.4-2.4-3.4c5.9-3.4-1.7-8.4-1.7-8.4c-4.8-3.4-10.4,8.1-10.4,8.1
			c-0.5-2.8-8.1-9.2-8.1-9.2l-5.1,4.2c-0.3,5.1,3.1,3.5,3.1,3.5l-0.5,33.2v8.9l7.7,4l0.4-26.3c-4.4,6.2-7.3-3.4-7.3-3.4
			c6.6,3.9,9.9-10.5,9.9-10.5s7.1,9.3,8.9,8.2c0.4-0.2-1,1.3-1.1,4.9c-0.3,12.1-0.7,47.5-0.7,47.5l-9.6-5.5l-19-11.9
			c0,0-0.1-46.1,0.4-47.4s-2.8-5.8-2.8-5.8l13.9-13.4c5.6-0.4,11.1,7,11.1,7c0.8-3.4,11.7-7,11.7-7s15.3,16.1,13.8,15.9
			s-1.4,5.8-1.4,5.8v70.5c38-59.3,20.7-138.2-38.6-176.2c-20.5-13.1-44.4-20.1-68.7-20.1h-0.1c-70.4,0-127.6,57-127.6,127.5
			c0,28.2,9.3,55.6,26.6,78l86-52.4c0.5-0.3,1.2-0.5,1.8-0.5v-39.6l5.8-18l-4.2-3.9c0,0-7.8,7.6-5.6,9.1s5.6-0.5,5.6-0.5l-5.5,6.8
			l-2.1-2.9c-1.1,1.8-5,7.7-9.4,9.4c-5.1,2-21.8-2.7-21.8-2.7l3.6,1.5l14.5,6.1l0.7,36.9l-24.1,13.1l-0.5-15.9l5.9-9.3
			c0,8.8,6.5,6.3,6.5,6.3v-24.1c0,0-12.8-5.8-14.8-7c-2.1-1.2-4.2-2.3-6.4-3.2l15.8-13.1c6.3-2.4,11.4,1.1,16.9,3.2
			c4.6,1.7,10.9-0.7,12.8-1.5l-5.4-7.4l14.1-17c0,0,11.2,15.9,13.6,15.1s-2,2.7-2.7,4.6s-2.7,13.4-2.7,13.4v63.4l4.4,7l5.7-6.6
			l0.5-69.8l-4.5-9.7l13.4-17.7l-38.8-6.8c0,0,58.3-14.9,47.2-28.2c-14.8-17.9-56.9,1.1-56.9,1.1l24-18.4c0,0,60.1-4.8,56.2,10.3
			c-4.1,15.8-18,20.2-42.1,29.6l21.6,2.9l19.7,3.8c-3.8-0.8-38.1,23.7-38.1,23.7l7.6,6.1l-0.1,48.2c0.7,0,1.3,0.2,1.9,0.5l83.9,51.1
			c1.3-1.7,2.5-3.5,3.6-5.2L300,274.1z M178.7,134.2l2,38.6c-23.2,7.4-49.9,4.6-49.9,4.6c19.8,10.4,1.8,22.1,1.8,22.1l8.7,10.6
			l-1.9,5l0.6,39.3l-9.5,6.5c0,0-0.4-37.8-0.4-39.6s-3-6.6-3-6.6c1.8-1,3.4-2.2,4.9-3.6l-15.2-10.5l-12.9,15.1l3.8,5.2l-0.3,40.1
			l2.4-1.3l1-34.7c0,0,4.5-2.2,5-6.6c0.3-3,2.3,7.9,11.3,9.2c0,0-1.9,11.4-8,3.8l0.7,35.8l-21.2,11.6l-0.4-13.6c0,0,0-24.7-0.2-38.6
			S95,212,95,212c4.6-1.2,20.6-24.1,20.6-24.1l10.8,8c0,0,15.4-8.3-18.3-24.8c4.1,0.1,41.2,8.7,56.7-3.4
			C170.5,163.3,177.7,141.1,178.7,134.2z M283.9,173.8c12,7.8,37-1.5,37-1.5l-9.7,15l-22.9-4.7l-29.2-7l-1.2-37.8
			C258,137.9,263.1,160.4,283.9,173.8z M246,241.2l0.3-33.6c0,0,5.2-7.4,0-10.4c-3.7-2.2-7.2-1.4-7.4,0.2c-0.3,2.4,1.1,8.6,6.3,5
			l-8.8,6.2l-9.7-13.6l11.1-12.5l21.4,14.3l0.7,53.3L246,241.2z"/>
		<path class="st0" d="M223.8,346.2c-5.8,1.2-11.8,1.8-17.8,1.8h-2.5c-5.9,0-11.8-0.6-17.5-1.8c-10.5-1.5-20.9-4.1-30.8-8
			c2.2,20,17.4,34.1,26.1,40.8c9.2,6.9,16.7,18.2,20.9,32.4c1,3.4,1.9,6.9,2.5,10.5c0.6-3.5,1.5-7,2.5-10.5
			c4.2-14.2,11.7-25.5,20.9-32.4c8.8-6.6,24-20.8,26.2-40.8C244.5,342.1,234.2,344.8,223.8,346.2z"/>
		<path class="st0" d="M330.4,264.9c-13.6,31.3-38.3,56.5-69.4,70.6c9.9,6.2,26,1.2,34.8-2.4c9.3-3.8,19.2-4.5,28-1.8
			c2.1,0.6,4.1,1.4,6.1,2.4c-1-1.9-1.9-3.9-2.5-6c-2.9-8.8-2.3-18.7,1.3-28C332,290.9,336.7,274.6,330.4,264.9z"/>
		<path class="st0" d="M406.3,208.3c-14.1-4.2-25.4-11.7-32.2-20.9c-6.7-8.9-21-24.3-41.2-26.3c-0.2,0-0.4,0-0.6,0
			c2.2,5.7,4.1,11.5,5.5,17.4c3.6,9.9,5.5,20.4,5.5,31v2.5c0,10.5-1.9,20.9-5.5,30.7c-1.4,6-3.3,11.9-5.5,17.7c0.2,0,0.4,0,0.6,0
			c20.3-2,34.6-17.4,41.3-26.3c6.9-9.2,18.1-16.7,32.2-20.9c3.4-1,6.9-1.9,10.4-2.5C413.2,210.1,409.7,209.3,406.3,208.3z"/>
		<path class="st0" d="M331.6,160c6.1-9.7,1.8-25.7-1.4-34.4c-3.4-9.4-3.8-19.3-0.7-28.1c0.7-2.1,1.6-4.1,2.7-6
			c-2,0.9-4,1.7-6.1,2.3c-8.9,2.6-18.8,1.6-28-2.3c-8.5-3.6-23.8-8.7-33.8-3.6C294.8,102.8,318.8,128.5,331.6,160z"/>
		<path class="st0" d="M198.3,73.6c2.7-0.2,5.6-0.4,8.5-0.3h2.5c6.2,0.1,12.3,0.8,18.4,2.1c10.3,1.7,20.3,4.6,29.9,8.7
			c-1.8-20.2-17.1-34.6-25.9-41.3c-9.1-6.9-16.5-18.2-20.6-32.3c-1-3.4-1.8-6.9-2.4-10.4c-0.7,3.5-1.5,7-2.6,10.4
			c-4.3,14.1-11.9,25.2-21.2,32c-8.7,6.4-23.6,19.9-26.4,39.1C171.4,76.9,184.8,74.2,198.3,73.6z"/>
		<path class="st0" d="M81,152.1c14.8-30.9,40.5-55.1,72.2-68c-9.6-6.9-26.2-2.5-35.3,0.8c-9.4,3.4-19.3,3.8-28,0.7
			c-2.1-0.7-4.1-1.6-6-2.7c1,2,1.7,4,2.3,6.1c2.6,8.9,1.6,18.8-2.3,28C80.2,125.8,74.8,142.1,81,152.1z"/>
		<path class="st0" d="M67.7,211.1c0-17.1,3.2-34,9.4-49.9c-18.1,2.7-31,17.4-37.1,26c-6.5,9.2-17,16.7-30.3,20.9
			c-3.2,1-6.5,1.9-9.8,2.5c3.3,0.6,6.6,1.5,9.8,2.5C23,217.3,33.6,224.8,40,234c6,8.6,18.8,23.2,36.7,26
			C70.7,244.4,67.7,227.8,67.7,211.1z"/>
		<path class="st0" d="M78.8,264.8c-6.1,9.7-1.6,25.8,1.6,34.5c3.5,9.4,4,19.3,1,28c-0.7,2.1-1.6,4.1-2.6,6c2-1,4-1.7,6.1-2.3
			c8.8-2.7,18.7-1.8,28,2c8.9,3.7,25.2,8.9,35.1,2.5C117.1,321.3,92.4,296.1,78.8,264.8z"/>
	</g>
</g>
</svg>
