<svg xmlns="http://www.w3.org/2000/svg" viewBox="0 0 1235.37 160.49"><defs><style>.cls-1{fill:#f5ebeb;}</style></defs><g id="Layer_2" data-name="Layer 2"><g id="Layer_2-2" data-name="Layer 2"><path class="cls-1" d="M72.29,130C68,151.19,49.65,159.59,49.65,159.59l-.15-.75c10-9.45,9.45-21.75,9.45-50.24,0-16.95-5.85-30.75-10.8-31.5-1-.3-10.35,8-15.6,12.3a22.15,22.15,0,0,1,.15,3.15V145h2.7v1.35H15.75V145h2.7V84.75c0-8.4-3.75-11.7-8.25-11-3.6.6-6,4-5.7,6a5.06,5.06,0,0,1,2.55-.75,5.7,5.7,0,0,1,5.7,5.7,5.16,5.16,0,0,1-5.55,5.4c-3.15-.15-5.4-2.1-5.85-5.7-.45-4.65,1.5-9.6,6.75-11.7,8-3.15,19.5-1.8,23.4,10.65L46.2,71.25c6.59.3,16.65,5.25,22.79,18.3C74.24,100.5,75.44,115.19,72.29,130Z"/><path class="cls-1" d="M64.8,44.85V57.3c-1.2,4.2-6.45,6.9-14.25,6.3C38,54.9,31.2,43.35,12.3,50.25c0,0,11.55,1.8,21.6,12.6l-.3.45c-3-1-11-4-15.75-4.95C12,57.3,5.4,57.15.45,59.85L0,59.55a47.89,47.89,0,0,1,8.55-12c8.25-8.1,19.8-10.65,29.85-6.45,5.55,2.25,11,7.65,12.3,10.95V47c0-8.4,3.75-13.35,17.55-15.45l.45.9C64.5,35.25,64.8,37.05,64.8,44.85Z"/><path class="cls-1" d="M60.3,25.65h3.15V27.3H43.8V25.65H47v-24H43.8V0H63.45V1.65H60.3Z"/><path class="cls-1" d="M154.19,72.45V74.1h-3.3v72.29H130.64a78.42,78.42,0,0,0-6.75-25,55.59,55.59,0,0,0-8.55-13.2v38.24h-18A48.64,48.64,0,0,0,86.7,114.75s6.75-3.75,14.4-8.7V84.75c0-8.4-3.75-11.7-8.1-11-3.6.6-6,4-5.85,6a5.18,5.18,0,0,1,2.7-.75,5.69,5.69,0,0,1,5.69,5.7,5.27,5.27,0,0,1-5.69,5.4c-3.15-.15-5.4-2.1-5.7-5.7-.6-4.65,1.35-9.6,6.6-11.7,9.6-3.75,24.59-.9,24.59,19.8V102c3.3,2.85,8.25,8,14.25,16.65a58.82,58.82,0,0,1,7,14.09V74.1h-3.3V72.45ZM101.1,127.19V109.65a101.58,101.58,0,0,1-9,5.25A51.69,51.69,0,0,1,101.1,127.19Z"/><path class="cls-1" d="M214.64,144.74v1.65h-21v-1.65h3.45V95c0-9.3-2.1-15.6-11.1-16.35-5.4-.45-12,2.25-17.1,2.1a8.86,8.86,0,0,1-4.8-1l.3-.75c3.15.3,7.05-3.6,16.65-6.6,6.3-2,18-1.35,24.15,3.3,5.55,4.2,6,11.85,6,19.35v49.79Z"/><path class="cls-1" d="M273,86.85a21.13,21.13,0,0,0-.15-3c-1.2-6.9-6.6-11.55-13.5-11.1-6,.45-10.2,5.85-10.2,11.7-.15,4.35,2,7.65,4.5,8.1,2.4.6,5.1-.45,5.7-1.8-1.35.45-3.45-.9-4-3.45-.45-2.25.45-4.65,2.55-5.25,2.4-.75,5,1,5.25,4.35.15,3.6-3.6,8.4-9.3,9.3-4.5.6-11.4-1.65-12.3-9.15-.75-7,5.7-14.55,17.85-15.15,9.3-.3,20.7,2.85,26.55,11.25v54.89c0,5.1-4.05,8.85-10.05,8.85h-30.6v-1.65h2.25V115.8c0-3.9,1.95-8,6.45-12C257.39,100.8,267.89,93,273,86.85Zm-1.35,55.94V95.55c-5.25,5.7-10.05,11.1-10.05,14.85v33.14H271A.69.69,0,0,0,271.64,142.79Z"/><path class="cls-1" d="M374.39,94.35v31.19c0,13.5-13.2,22-27.15,22-12,0-19.8-3.75-24.3-11.4-3.45-5.85-4.05-15-2.25-21.29,3.15-11.1,14.25-17.4,23.85-13.65a11,11,0,0,1,6.75,11.7,6.17,6.17,0,0,1-5.85,5.85,5.36,5.36,0,0,1-5.55-5.55,5.54,5.54,0,0,1,5.55-5.55,5.14,5.14,0,0,1,2.7.6c.15-2-1.2-4.65-5.7-6-5.4-1.5-8.25,3.9-8.25,11v14.1c0,14.39,6,17.39,13.05,17.39,7.8,0,12.9-3.45,12.9-14.4V90.75c0-8.25-1.05-15.75-10.95-15.75-11.1,0-17.7,17.1-25.05,21.6-6.3,3.9-15.75.9-17.25.3,7.35-.9,8.1-9.3,16.95-16.65,11-9.3,22.35-10.65,33.45-7.2C367.19,76.05,374.39,85.5,374.39,94.35Z"/><path class="cls-1" d="M441.74,92v45.59c0,5.4-4.35,8.85-10.2,8.85H411c1.95-18.29-1.35-36.89-18.3-51.44a59.1,59.1,0,0,1,20.25,18.15c5.85,8.7,10.2,21.59,11.7,30.74h3v-61c0-4.8-.75-8.25-5.7-8.85a8.32,8.32,0,0,0-9,4.2,6.83,6.83,0,0,1,3-.75,6,6,0,0,1,0,12,6.13,6.13,0,0,1-6-6.45s0-5.85,4.65-9.15c3.9-2.85,8.25-2.55,11-2.4C437.24,71.85,441.74,82.05,441.74,92Z"/><path class="cls-1" d="M512.39,74.7h-3.3V73.05h20.85V74.7h-3.45v59.54c0,4.8.75,10.8,5.55,11.55,3.15.45,6.3-.45,8.1-3.3a4.93,4.93,0,0,1-2.55.6,5.85,5.85,0,1,1,0-11.69,6.08,6.08,0,0,1,6,5.84,9.07,9.07,0,0,1-4.2,8.4c-3,2.25-7.65,2.85-11.25,2.4-11.1-1.5-15.75-11.55-15.75-22.94Zm-34.5,0h-3.3V73.05h20.85V74.7H492v59.54c0,4.8.75,10.8,5.55,11.55,3.15.45,6.3-.45,8.1-3.3a4.93,4.93,0,0,1-2.55.6,5.85,5.85,0,1,1,0-11.69,6.08,6.08,0,0,1,6,5.84,9.07,9.07,0,0,1-4.2,8.4c-3,2.25-7.65,2.85-11.25,2.4-11.1-1.5-15.75-11.55-15.75-22.94Z"/><path class="cls-1" d="M628.64,74.1h-3.3v61.49c0,5.55-11.7,11.85-18.9,11.85-9.3.3-24-2.7-33.45-6.45-1.8-.75-2.25-1.65-2.25-2.25v-49c0-9.9-.15-12.45-2.7-13.65-1.35-.75-4.5-1.2-7,2.1a9.88,9.88,0,0,0-1.5,5.7,4.6,4.6,0,0,1,5.85,4.5A4.67,4.67,0,0,1,560.69,93c-3.75,0-6.6-3.75-5.25-10.2,1.65-8.55,9.15-11.4,15-11.4,8.7,0,14.55,5.4,14.55,13v51.74c4.2,2.85,8.55,6.15,19.35,7.95,5.1.9,6.75-1.35,6.75-5.55V74.1h-3.3V72.45h20.85Z"/><path class="cls-1" d="M651.59,83.85s9.15.3,21,6c10.8,5.1,19.8,16.2,19.8,29.84,0,17.85-8.55,27.9-21.15,27.9-9.45,0-12-7.2-12-11.4,0-2.1,1.2-7.34,6.75-7.34a6.75,6.75,0,1,1,0,13.49,6.15,6.15,0,0,1-3.3-1.05,2.9,2.9,0,0,0,.75,1.35c1.95,2.85,6.3,5.7,10.2.6s3.9-13.8,3.9-24.3c0-10-5.55-21.59-13.8-26.39-6.3-3.75-11.7-5.55-18.3-5.7l-.15-.15c.75-1.8,7.35-14.85,19.65-15.3,10.65-.45,14.1,3,21,3.6,6.3.45,13-.6,15.75-3.3l.15.15c-.45,1.8-3,11-14.7,12.75-13.95,2.25-17.4-2.1-25.5-2.7C655.19,81.3,651.59,83.85,651.59,83.85Z"/><path class="cls-1" d="M791.68,130.34c0,7.8-3.9,17.25-13.5,17.25-7.35,0-15.15-6.45-15.15-20.1v-4.64a37,37,0,0,0-3.3,3.44,184.23,184.23,0,0,0-13.8,21.3L723,118.35c17.85-14.55,22.8-25.95,24-33.75s-1.5-11.55-6.6-11.85-7.2,6.3-8.7,11.85c-1.65,5.85-.9,10.05,1.8,10.35a4.15,4.15,0,0,0,3.45-.75,1.9,1.9,0,0,1-.9-.15c-1.8-.6-2.7-3-1.8-5.55s2.85-3.9,4.65-3.3,2.7,3.15,1.8,5.55c0,.15-.15.3-.15.45-.9,2.7-2.85,5.25-7.8,5.25-6.75,0-11.85-8.25-8.69-15.75,2.25-5.4,6.74-9.15,16.19-9.3,9.3,0,17.1,9.6,13.35,26.1-2.25,10.2-11.4,24.6-18.75,30.74l5.25,6.9c6.6-10.35,14.85-16.2,22.95-19V74.25h-3.45V72.6h20.85v1.65h-3.3V114C787.18,114.6,791.68,121.94,791.68,130.34Zm-6.6-.3c0-7.19-2-13.64-8-13.64v16.79c0,9.6,1.5,12.45,3.6,12.45C784.18,145.64,785.08,138.89,785.08,130Z"/><path class="cls-1" d="M867,131.09c-4.35,21-24.15,29.4-24.15,29.4l-.3-.75c10.35-10.35,11.1-21.75,11.1-50.24,0-17-8.85-31-19.8-33.15-1.8-.3-14.55,12-14.55,12l7.05,51.89c3.3-4.5,7-11.25,9.3-14.84,4.8-8,5.85-15.75,3-18a3.87,3.87,0,0,0-4.8-.3,4,4,0,0,1,3.6,4.05,4,4,0,0,1-4,4,4.15,4.15,0,0,1-4.2-4c-.15-3.3,1.8-6.6,7.65-6.6a9.08,9.08,0,0,1,8.85,8c1.65,9.6-2.25,19.94-12.3,33.89H812.23a15.38,15.38,0,0,0,.9-7.8c-.45-3.6-6.75-46.34-6.75-46.34l24.6-21c13.2-.45,26.55,5.25,32.85,18.3C869.08,100.5,870.13,116.25,867,131.09Z"/><path class="cls-1" d="M868.93,45.7h-11.4a21.05,21.05,0,0,0-7,1.2,5.6,5.6,0,0,0-3.3,5.4,5,5,0,0,0,2.25,4.2,5.11,5.11,0,0,1-1-3.3,5.44,5.44,0,0,1,5.55-5.55c7.65,0,8.1,10.8.9,12.3-5.55,1.2-10.8-2.1-11-8.25-.15-4.2,1.8-8.4,5.4-11.7,4.5-3.9,9.9-5.7,19.5-5.7h9.6c11.55,0,15.9-3.75,17.4-4.95a18.36,18.36,0,0,0,5-6.75l.45.3C897.13,38.5,883.48,45.55,868.93,45.7Z"/><path class="cls-1" d="M957.13,144.74h3.45v1.65H939.73v-1.65h3.15V90.45c-5.7,7.65-15.9,11.85-28,12.75v8.1a21.88,21.88,0,0,1,6.75-4c5.7-2,11.25-.9,13.8,2.1a6.18,6.18,0,0,1,1.5,4.35,5.84,5.84,0,0,1-6.15,5.4,5.83,5.83,0,0,1-1.5-11.25c-4.5.3-9.75,5.25-12.6,13.8q-1.12,3.6-1.8,6.29v16.8h3v1.65h-21.3v-1.65H900V94.2c0-9.3,6.15-15.75,11.55-19,4.5-2.85,9.6-3.9,17-3.9a41.85,41.85,0,0,1,7.95.6c4.8-10.8,16.8-16.2,31.5-17.25l.3.6c-14,2.4-17.85,6.9-20,18.9,0,.15-.3,1.35-.45,2.55,4.65,3.6,9.3,9.45,9.3,17.55ZM934.63,78a26.13,26.13,0,0,1,.75-3.3,14.2,14.2,0,0,0-6.9-1.5c-9.15,0-13.65,6.45-13.65,17v12.3c13-2.4,16.8-6.9,18.75-18.75C933.73,83.55,934.48,78.45,934.63,78Z"/><path class="cls-1" d="M979.93,83.85s9.15.3,21,6c10.8,5.1,19.8,16.2,19.8,29.84,0,17.85-8.55,27.9-21.15,27.9-9.45,0-12-7.2-12-11.4,0-2.1,1.2-7.34,6.75-7.34a6.75,6.75,0,1,1,0,13.49,6.15,6.15,0,0,1-3.3-1.05,2.9,2.9,0,0,0,.75,1.35c2,2.85,6.3,5.7,10.2.6s3.9-13.8,3.9-24.3c0-10-5.55-21.59-13.8-26.39-6.3-3.75-11.7-5.55-18.3-5.7l-.15-.15c.75-1.8,7.35-14.85,19.65-15.3,10.65-.45,14.1,3,21,3.6,6.3.45,13-.6,15.75-3.3l.15.15c-.45,1.8-3,11-14.7,12.75-14,2.25-17.4-2.1-25.5-2.7C983.53,81.3,979.93,83.85,979.93,83.85Z"/><path class="cls-1" d="M1013.83,44.85V57.3c-1.2,4.2-6.45,6.9-14.25,6.3-12.6-8.7-19.35-20.25-38.25-13.35,0,0,11.55,1.8,21.6,12.6l-.3.45c-3-1-11-4-15.75-4.95-5.85-1.05-12.45-1.2-17.4,1.5l-.45-.3a47.89,47.89,0,0,1,8.55-12c8.25-8.1,19.8-10.65,29.85-6.45,5.55,2.25,11,7.65,12.3,10.95V47c0-8.4,3.75-13.35,17.55-15.45l.45.9C1013.53,35.25,1013.83,37.05,1013.83,44.85Z"/><path class="cls-1" d="M1096,80.1c-1.8,3.9-5.25,5.7-13,9.15a35.52,35.52,0,0,1,2,11.25v45.89h-28.5c-5.85,0-9.9-3.9-9.9-8.85V114c0-4,1.65-10,6.45-13.8,5.25-4,14.4-9.3,21.6-13.5-1.2-6.3-4.95-9.75-10.2-11.55-5.4-2.1-14.55-.3-15.9,5.85-1.35,5.25,2.7,9,7,8a4.83,4.83,0,0,1-3.15-4.5,4.63,4.63,0,0,1,4.95-4.5,4.86,4.86,0,0,1,5,4.8c.15,3.6-2.85,7.5-8.85,7.8a9.89,9.89,0,0,1-10.35-9.15c-.15-5.1,3.9-12.3,16.35-12,11,.15,18,5.4,21.3,12.3,7.2-4,11.55-12.75,8.7-17.4h.15C1096.78,67.8,1098.28,75,1096,80.1Zm-21.3,14.1c-3,2-6.15,4.35-9,6.3-4.2,2.85-5.1,4.8-5.1,7.35v34.94a.69.69,0,0,0,.6.75h9.45V111.3A41.45,41.45,0,0,1,1074.73,94.2Z"/><path class="cls-1" d="M1145.08,144.74v1.65h-21v-1.65h3.45V95c0-9.3-2.1-15.6-11.1-16.35-5.4-.45-12,2.25-17.1,2.1a8.86,8.86,0,0,1-4.8-1l.3-.75c3.15.3,7.05-3.6,16.65-6.6,6.3-2,18-1.35,24.15,3.3,5.55,4.2,6,11.85,6,19.35v49.79Z"/><path class="cls-1" d="M1235.37,145v1.35h-19.49V145h2.7V84.75c0-8.25-4.2-9.45-8.25-7.8-3.3,1.35-6.45,6.9-7.35,13.8h-.3c-1-6.9-4-12.45-7.35-13.8-4-1.65-12.15,2.4-9.9,36.45a228.36,228.36,0,0,0,5,31.64h3.3a104.89,104.89,0,0,0,8.1-17.85c3-7.94,4-18.74-.3-20.09a4.76,4.76,0,0,0-5,2,5.13,5.13,0,0,1-.9,10.2,5.06,5.06,0,0,1-5.1-5.1,8.21,8.21,0,0,1,5.1-7.35c4.35-2,9.9-1.2,13,4.8,2.7,4.8,2.55,11.84,1,16.64-2.55,8.4-6.9,14.4-9.45,18.15h-26.55V145h2.55a219.53,219.53,0,0,1-5.1-31.79c-2.7-38.85,14.7-44.7,24.3-40.8,4,1.65,6.9,7,7.35,9.45.15-2.55,2.4-7.8,6.15-9.6,9.15-4.35,23.7,2.25,23.7,20.25V145Z"/><path class="cls-1" d="M1228.63,56c-1.65,2.55-9.45,13.35-20.7,6.3-8.7-5.4-12.6-20-32.1-11.55,0,0,9.9.6,21,12.45l-.3.6a180.87,180.87,0,0,0-17.55-5.4c-2.7-.6-10.2-1.5-15.75,1.65l-.45-.3a49.24,49.24,0,0,1,10-13.2c10.35-8.85,20.25-9,29.1-4.65,15.3,7.5,15.15,15.45,26.4,13.65Z"/></g></g></svg>